<?xml version="1.0" encoding="utf-8"?>
<!-- Generator: Adobe Illustrator 25.3.1, SVG Export Plug-In . SVG Version: 6.00 Build 0)  -->
<svg version="1.1" id="Layer_1" xmlns="http://www.w3.org/2000/svg" xmlns:xlink="http://www.w3.org/1999/xlink" x="0px" y="0px"
	 viewBox="0 0 20 20" style="enable-background:new 0 0 20 20;" xml:space="preserve">
<style type="text/css">
	.st0{fill:#293B49;}
</style>
<path id="Subtraction_37" class="st0" d="M20,10c0,5.5-4.5,10-10,10S0,15.5,0,10S4.5,0,10,0C15.5,0,20,4.5,20,10z M10.1,7.2
	c0.7,0,1.3-0.6,1.3-1.3s-0.6-1.3-1.3-1.3S8.8,5.2,8.8,5.9C8.8,6.6,9.3,7.2,10.1,7.2C10.1,7.2,10.1,7.2,10.1,7.2z M10.1,15
	c0.7,0,1.3-0.6,1.3-1.3V9.8c0-0.7-0.6-1.3-1.3-1.3S8.8,9.1,8.8,9.8v3.9c0,0,0,0,0,0C8.8,14.4,9.3,15,10.1,15
	C10.1,15,10.1,15,10.1,15z"/>
</svg>
