<?xml version="1.0" encoding="utf-8"?>
<!-- Generator: Adobe Illustrator 25.3.1, SVG Export Plug-In . SVG Version: 6.00 Build 0)  -->
<svg version="1.1" id="Layer_1" xmlns="http://www.w3.org/2000/svg" xmlns:xlink="http://www.w3.org/1999/xlink" x="0px" y="0px"
	 viewBox="0 0 20 20" style="enable-background:new 0 0 20 20;" xml:space="preserve">
<style type="text/css">
	.st0{fill:#293B49;}
</style>
<path class="st0" d="M20,10.1C20,4.6,15.6,0,10.1,0S0,4.4,0,9.9C0,15.4,4.4,20,9.9,20C15.4,20,20,15.6,20,10.1z M5.7,14.2c-0.4-0.4-0.3-0.9,0-1.3l3-2.9L5.8,7c-0.3-0.4-0.3-0.9,0-1.3c0.3-0.4,0.9-0.4,1.3,0l2.9,3l3-2.9c0,0,0,0,0.1-0.1c0.4-0.3,0.9-0.3,1.3,0.1c0.3,0.4,0.3,0.9-0.1,1.3l-3,2.9l2.9,3c0.3,0.3,0.3,0.9,0,1.2c-0.3,0.4-0.9,0.4-1.3,0.1l-2.9-3l-3,2.9C6.7,14.6,6.1,14.6,5.7,14.2z"/>
</svg>
