<?xml version="1.0" encoding="utf-8"?>
<!-- Generator: Adobe Illustrator 25.3.1, SVG Export Plug-In . SVG Version: 6.00 Build 0)  -->
<svg version="1.1" id="Layer_1" xmlns="http://www.w3.org/2000/svg" xmlns:xlink="http://www.w3.org/1999/xlink" x="0px" y="0px"
	 viewBox="0 0 20 20" style="enable-background:new 0 0 20 20;" xml:space="preserve">
<style type="text/css">
	.st0{fill:#293B49;}
</style>
<path class="st0" d="M19.5,14.2l-6.7-12c-0.6-1.1-1.7-1.7-2.8-1.7S7.8,1.1,7.2,2.2l-6.7,12c-0.6,1.1-0.6,2.4,0,3.6
	c0.6,1.1,1.7,1.8,2.9,1.8h13.4c1.2,0,2.3-0.7,2.9-1.8C20.2,16.6,20.1,15.3,19.5,14.2z M10,15.9c-0.7,0-1.2-0.6-1.2-1.2
	s0.5-1.2,1.2-1.2c0.7,0,1.2,0.6,1.2,1.2S10.7,15.9,10,15.9z M11.2,11c0,0.7-0.5,1.2-1.2,1.2c-0.7,0-1.2-0.6-1.2-1.2V7.2
	C8.8,6.6,9.3,6,10,6c0.7,0,1.2,0.6,1.2,1.2V11z"/>
</svg>
