<?xml version="1.0" encoding="utf-8"?>
<!-- Generator: Adobe Illustrator 25.3.1, SVG Export Plug-In . SVG Version: 6.00 Build 0)  -->
<svg version="1.1" id="Layer_1" xmlns="http://www.w3.org/2000/svg" xmlns:xlink="http://www.w3.org/1999/xlink" x="0px" y="0px"
	 viewBox="0 0 20 20" style="enable-background:new 0 0 20 20;" xml:space="preserve">
<style type="text/css">
	.st0{fill:#293B49;}
</style>
<path class="st0" d="M10,0C4.5,0,0,4.5,0,10c0,5.5,4.5,10,10,10c5.5,0,10-4.5,10-10C20,4.5,15.5,0,10,0z M15.7,7.8l-6.1,6.1
	c0,0-0.1,0-0.1,0s-0.1,0-0.1,0L6,10.6c-0.4-0.4-0.4-1,0-1.4c0.4-0.4,1-0.4,1.4,0l2,2l4.8-4.8c0.4-0.4,1-0.4,1.4,0
	C15.9,6.6,16,6.9,16,7.1C16,7.4,15.9,7.6,15.7,7.8z"/>
</svg>
