<?xml version="1.0" encoding="utf-8"?>
<!-- Generator: Adobe Illustrator 25.3.1, SVG Export Plug-In . SVG Version: 6.00 Build 0)  -->
<svg version="1.1" id="Layer_1" xmlns="http://www.w3.org/2000/svg" xmlns:xlink="http://www.w3.org/1999/xlink" x="0px" y="0px"
	 viewBox="0 0 20 20" style="enable-background:new 0 0 20 20;" xml:space="preserve">
<style type="text/css">
	.st0{fill:#7E8991;}
</style>
<path id="View" transform="translate(1091 488)" class="st0" d="M-1081-470.5c-3.8,0-7.4-2.3-9.6-6.2l0,0c-0.6-1-0.6-2.2,0-3.1
	c2.2-3.9,5.8-6.2,9.6-6.2c3.8,0,7.4,2.3,9.6,6.2c0.6,1,0.6,2.1,0,3.1C-1073.6-472.8-1077.2-470.5-1081-470.5z M-1088.8-477.7
	c1.9,3.3,4.7,5.2,7.8,5.2c3.1,0,5.9-1.9,7.8-5.2c0.2-0.3,0.2-0.8,0-1.1c-1.9-3.3-4.7-5.2-7.8-5.2c-3.1,0-5.9,1.9-7.8,5.2
	C-1089-478.5-1089-478.1-1088.8-477.7L-1088.8-477.7z M-1081-474.8c-1.9,0-3.4-1.5-3.4-3.4c0-1.9,1.5-3.4,3.4-3.4
	c1.9,0,3.4,1.5,3.4,3.4C-1077.5-476.4-1079.1-474.8-1081-474.8z M-1081-479.7c-0.8,0-1.4,0.6-1.4,1.4s0.6,1.4,1.4,1.4
	s1.4-0.6,1.4-1.4S-1080.2-479.7-1081-479.7z"/>
</svg>
