<?xml version="1.0" encoding="utf-8"?>
<!-- Generator: Adobe Illustrator 25.3.1, SVG Export Plug-In . SVG Version: 6.00 Build 0)  -->
<svg version="1.1" id="Layer_1" xmlns="http://www.w3.org/2000/svg" xmlns:xlink="http://www.w3.org/1999/xlink" x="0px" y="0px"
	 viewBox="0 0 20 20" style="enable-background:new 0 0 20 20;" xml:space="preserve">
<style type="text/css">
	.st0{fill:#7E8991;}
</style>
<path class="st0" d="M6,1.9c-0.4-0.4-1-0.4-1.4,0c-0.4,0.4-0.4,1,0,1.4l0.8,0.8C3.3,5.2,1.5,7,0.4,9c-0.5,1-0.5,2.1,0,3.1
	c2.2,3.9,5.8,6.2,9.6,6.2c2.5,0,4.8-0.9,6.6-2.6l1,1.1c0.2,0.2,0.4,0.3,0.7,0.3c0.2,0,0.5-0.1,0.7-0.3c0.4-0.4,0.4-1,0-1.4L6,1.9z
	 M10.4,12.1c-0.4,0.1-0.8,0-1.1-0.2c-0.3-0.2-0.6-0.5-0.7-0.9c-0.2-0.8,0.3-1.6,1.1-1.8c0.2-0.1,0.4-0.1,0.6,0l1.2,1.2
	C11.6,11.2,11.1,11.9,10.4,12.1z M10,16.4c-3.1,0-6-1.9-7.9-5.3c-0.2-0.4-0.2-0.8,0-1.2c1-1.9,2.7-3.5,4.7-4.5l1.9,2
	c-1.5,0.6-2.4,2.3-2,4c0.2,0.9,0.8,1.6,1.6,2.1C8.8,13.9,9.4,14,10,14c0.3,0,0.6,0,0.8-0.1c1-0.3,1.8-1,2.2-1.9l2.2,2.3
	C13.8,15.7,12,16.4,10,16.4z M19.9,11.4c-0.1,0.4-0.5,0.7-0.9,0.7c-0.1,0-0.2,0-0.3,0c-0.5-0.1-0.8-0.7-0.7-1.2
	c0.1-0.3,0-0.6-0.1-0.9c-1.2-2.2-3.1-3.9-5.5-4.8C12,5,11.7,4.4,11.9,3.9c0.2-0.5,0.7-0.7,1.2-0.6c2.8,1.1,5.1,3.1,6.5,5.7
	C20,9.8,20.1,10.6,19.9,11.4z"/>
</svg>
