<?xml version="1.0" encoding="utf-8"?>
<!-- Generator: Adobe Illustrator 25.3.1, SVG Export Plug-In . SVG Version: 6.00 Build 0)  -->
<svg version="1.1" id="Layer_1" xmlns="http://www.w3.org/2000/svg" xmlns:xlink="http://www.w3.org/1999/xlink" x="0px" y="0px"
	 viewBox="0 0 16 16" style="enable-background:new 0 0 16 16;" xml:space="preserve">
<style type="text/css">
	.st0{fill:#293B49;}
</style>
<path class="st0" d="M15.7,13.7l-2.7-2.6c0,0,0,0,0,0c0.6-1,1-2.2,1-3.5c0-3.8-3.1-6.9-6.9-6.9C3.1,0.6,0,3.7,0,7.6
	c0,3.8,3.1,6.9,6.9,6.9c1.8,0,3.5-0.7,4.7-1.9l2.7,2.5c0.2,0.2,0.4,0.3,0.7,0.3c0.3,0,0.5-0.1,0.7-0.3C16.1,14.7,16.1,14,15.7,13.7z
	 M6.9,12.5c-2.7,0-5-2.2-5-5s2.2-5,5-5s5,2.2,5,5S9.7,12.5,6.9,12.5z"/>
</svg>
