<?xml version="1.0" encoding="utf-8"?>
<!-- Generator: Adobe Illustrator 22.0.0, SVG Export Plug-In . SVG Version: 6.00 Build 0)  -->
<svg version="1.1" id="Layer_1" xmlns="http://www.w3.org/2000/svg" xmlns:xlink="http://www.w3.org/1999/xlink" x="0px" y="0px"
	 viewBox="0 0 32 32" style="enable-background:new 0 0 32 32;" xml:space="preserve">
<style type="text/css">
	.st0{fill:#208DEC;}
	.st1{fill:#FFFFFF;}
</style>
<path class="st0" d="M30,32H2c-1.1,0-2-0.9-2-2V2c0-1.1,0.9-2,2-2h28c1.1,0,2,0.9,2,2v28C32,31.1,31.1,32,30,32z"/>
<g>
	<path class="st1" d="M7,21.8c0,0-0.2-0.1-0.6-0.1c-0.5,0-0.7,0.2-0.7,0.6c0,0.8,1.5,0.7,1.5,1.7c0,0.6-0.5,1.1-1.4,1.1
		c-0.5,0-0.8-0.1-0.9-0.2c-0.1-0.1-0.1-0.1,0-0.4c0-0.2,0-0.2,0.1-0.4C5,24,5,24,5.1,24c0.1,0,0.1,0,0.1,0.2l0,0.5
		c0,0,0.2,0.1,0.6,0.1c0.5,0,0.8-0.3,0.8-0.6c0-0.8-1.5-0.7-1.5-1.7c0-0.6,0.5-1.1,1.4-1.1c0.5,0,0.8,0.1,0.8,0.2
		c0.1,0.1,0.1,0.1,0,0.4c0,0.2,0,0.2-0.1,0.3c0,0.1-0.1,0.2-0.2,0.2c-0.1,0-0.1,0-0.1-0.2L7,21.8z"/>
	<path class="st1" d="M9.3,22.3c0.7,0,1.1,0.4,1.1,1c0,1-0.7,1.8-1.6,1.8c-0.7,0-1.1-0.4-1.1-1C7.7,23.1,8.5,22.3,9.3,22.3z
		 M8.9,24.8c0.7,0,1-0.7,1-1.3c0-0.5-0.3-0.8-0.6-0.8c-0.7,0-1,0.7-1,1.3C8.2,24.5,8.5,24.8,8.9,24.8z"/>
	<path class="st1" d="M11.2,21.5c-0.1,0-0.1,0-0.1-0.1c0-0.1,0-0.1,0.2-0.2c0.1,0,0.3-0.1,0.4-0.1c0.2,0,0.3,0.1,0.3,0.2
		c0,0,0,0.1,0,0.1l-0.5,3c0,0.2,0,0.3,0.1,0.3c0.1,0,0.1,0,0.2,0c0.1,0,0.1,0,0.1,0.1c0,0.2-0.2,0.3-0.5,0.3c-0.3,0-0.4-0.1-0.4-0.4
		c0,0,0-0.1,0-0.2l0.5-3L11.2,21.5z"/>
	<path class="st1" d="M14.7,24.5c0,0.2,0,0.3,0.1,0.3c0.1,0,0.1,0,0.2,0c0.1,0,0.1,0,0.1,0.1c0,0.2-0.2,0.3-0.5,0.3
		c-0.3,0-0.4-0.2-0.4-0.5l0,0c0,0-0.3,0.5-0.9,0.5c-0.5,0-0.8-0.3-0.8-0.8c0-0.4,0.1-1,0.3-1.6l-0.3,0c-0.1,0-0.1,0-0.1-0.1
		c0-0.1,0-0.1,0.2-0.2c0.1,0,0.3-0.1,0.4-0.1c0.2,0,0.3,0.1,0.3,0.3c-0.1,0.6-0.2,1.2-0.2,1.6c0,0.4,0.2,0.5,0.4,0.5
		c0.4,0,0.8-0.4,0.8-0.4l0.3-1.7c0-0.1,0.1-0.2,0.3-0.2c0.2,0,0.2,0.1,0.2,0.2L14.7,24.5z"/>
	<path class="st1" d="M15.8,22.7c-0.1,0-0.2,0-0.2-0.1c0-0.1,0.1-0.2,0.2-0.2h0.2l0.1-0.4c0.1-0.2,0.2-0.3,0.3-0.3
		c0.1,0,0.2,0.1,0.1,0.2l-0.1,0.5h0.5c0.1,0,0.2,0,0.2,0.1c0,0.1-0.1,0.2-0.2,0.2h-0.5l-0.3,1.6c-0.1,0.3,0,0.4,0.2,0.4
		c0.2,0,0.2-0.1,0.3-0.1c0.1,0,0.1,0,0.1,0.1c0,0.1-0.2,0.3-0.6,0.3c-0.5,0-0.6-0.3-0.5-0.7l0.3-1.6H15.8z"/>
	<path class="st1" d="M17.6,22.7c-0.1,0-0.1,0-0.1-0.1c0-0.1,0-0.1,0.2-0.2c0.1,0,0.3-0.1,0.4-0.1c0.2,0,0.3,0.1,0.3,0.3l-0.3,1.8
		c0,0.2,0,0.3,0.1,0.3c0.1,0,0.1,0,0.2,0c0.1,0,0.1,0,0.1,0.1c0,0.2-0.2,0.3-0.5,0.3c-0.3,0-0.5-0.1-0.4-0.6l0.3-1.8L17.6,22.7z
		 M18.3,21.2c0.2,0,0.3,0.1,0.3,0.3c0,0.2-0.2,0.4-0.4,0.4c-0.2,0-0.3-0.1-0.3-0.3C18,21.4,18.1,21.2,18.3,21.2z"/>
	<path class="st1" d="M20.5,22.3c0.7,0,1.1,0.4,1.1,1c0,1-0.7,1.8-1.6,1.8c-0.7,0-1.1-0.4-1.1-1C19,23.1,19.7,22.3,20.5,22.3z
		 M20.1,24.8c0.7,0,1-0.7,1-1.3c0-0.5-0.3-0.8-0.6-0.8c-0.7,0-1,0.7-1,1.3C19.5,24.5,19.8,24.8,20.1,24.8z"/>
	<path class="st1" d="M22.3,22.7c-0.1,0-0.1,0-0.1-0.1c0-0.1,0-0.1,0.2-0.2c0.1,0,0.3-0.1,0.4-0.1c0.2,0,0.3,0.1,0.3,0.2
		c0,0.1,0,0.2,0,0.2l0,0c0,0,0.3-0.5,0.9-0.5c0.5,0,0.8,0.3,0.8,0.8c0,0.4-0.2,1.2-0.2,1.5c0,0.1,0.1,0.2,0.1,0.2c0.1,0,0.1,0,0.2,0
		c0.1,0,0.1,0,0.1,0.1c0,0.2-0.2,0.3-0.5,0.3c-0.3,0-0.4-0.1-0.4-0.4c0-0.3,0.2-1.1,0.2-1.5c0-0.4-0.2-0.5-0.4-0.5
		c-0.4,0-0.8,0.4-0.8,0.4l-0.3,1.7c0,0.1-0.1,0.2-0.3,0.2c-0.2,0-0.2-0.1-0.2-0.2l0.4-2.1L22.3,22.7z"/>
	<path class="st1" d="M26.5,22.3c0.4,0,0.7,0.2,0.7,0.4c0,0.1-0.1,0.2-0.2,0.2c-0.1,0-0.2-0.3-0.6-0.3c-0.3,0-0.4,0.1-0.4,0.4
		c0,0.5,1.1,0.5,1.1,1.2c0,0.5-0.4,0.9-1.1,0.9c-0.5,0-0.7-0.2-0.7-0.4c0-0.1,0.1-0.2,0.2-0.2c0.1,0,0.2,0.3,0.6,0.3
		c0.3,0,0.5-0.2,0.5-0.4c0-0.5-1.1-0.5-1.1-1.3C25.5,22.7,25.8,22.3,26.5,22.3z"/>
</g>
<g>
	<path class="st1" d="M29,17.4H3c-0.3,0-0.5-0.2-0.5-0.5V7.2C2.5,7,2.7,6.7,3,6.7H29c0.3,0,0.5,0.2,0.5,0.5v9.7
		C29.5,17.2,29.3,17.4,29,17.4z"/>
	<path class="st0" d="M6.5,9.4L6.1,9.3C5.7,9.2,5.6,9,5.6,8.7c0-0.2,0.2-0.4,0.5-0.4h2c0.4,0,0.6,0.1,0.7,0.5l1.3,4.4
		c0.2,0.6,0.3,1.2,0.3,1.2h0c0,0,0.1-0.6,0.3-1.2l1.3-4.4c0.1-0.3,0.3-0.5,0.7-0.5h2c0.3,0,0.5,0.2,0.5,0.4c0,0.3-0.1,0.4-0.5,0.6
		l-0.4,0.1l0.6,5.3l0.3,0.1c0.3,0.1,0.4,0.2,0.4,0.5c0,0.3-0.2,0.5-0.5,0.5h-2c-0.3,0-0.5-0.2-0.5-0.5c0-0.2,0.1-0.3,0.4-0.5
		l0.3-0.1l-0.3-3.4c-0.1-0.7-0.1-1.6-0.1-1.6h0l-1.5,5.2c-0.2,0.7-0.5,0.9-1,0.9c-0.6,0-0.8-0.2-1-0.9L7.6,9.8h0c0,0,0,0.8-0.1,1.6
		l-0.3,3.4l0.3,0.1c0.3,0.2,0.4,0.3,0.4,0.5c0,0.3-0.2,0.5-0.5,0.5H5.7c-0.3,0-0.5-0.2-0.5-0.5c0-0.2,0.1-0.4,0.4-0.5l0.3-0.1
		L6.5,9.4z M21,9.5c0,0-0.3-0.2-1-0.2c-1.4,0-2.3,0.9-2.3,2.7c0,1.8,1,2.8,2.5,2.8c0.5,0,0.7-0.1,0.7-0.1V13l-0.8-0.2
		c-0.3-0.1-0.5-0.2-0.5-0.5c0-0.2,0.2-0.4,0.5-0.4h1.8c0.4,0,0.5,0.2,0.5,0.5v2.1c0,0.4-0.1,0.7-0.4,0.8c-0.3,0.2-0.9,0.5-2.3,0.5
		c-2.3,0-3.7-1.4-3.7-3.7c0-2.4,1.6-4,4.2-4c1,0,1.6,0.2,1.8,0.4c0.2,0.2,0.2,0.3,0.2,0.9v0.2c0,0.3,0,0.5,0,0.8
		c0,0.3-0.2,0.4-0.4,0.4c-0.3,0-0.4-0.1-0.5-0.4L21,9.5z M24.4,9.4l-0.5-0.2c-0.3-0.1-0.5-0.3-0.5-0.5c0-0.2,0.2-0.4,0.5-0.4h2.5
		c0.3,0,0.5,0.2,0.5,0.4c0,0.3-0.1,0.4-0.5,0.5l-0.5,0.2v5.3l0.5,0.2c0.3,0.1,0.4,0.2,0.4,0.5c0,0.3-0.2,0.5-0.5,0.5H24
		c-0.3,0-0.5-0.2-0.5-0.5c0-0.2,0.1-0.4,0.4-0.5l0.5-0.2V9.4z"/>
</g>
</svg>
