<?xml version="1.0" encoding="utf-8"?>
<!-- Generator: Adobe Illustrator 25.3.1, SVG Export Plug-In . SVG Version: 6.00 Build 0)  -->
<svg version="1.1" id="Layer_1" xmlns="http://www.w3.org/2000/svg" xmlns:xlink="http://www.w3.org/1999/xlink" x="0px" y="0px"
	 viewBox="0 0 24 24" style="enable-background:new 0 0 24 24;" xml:space="preserve">
<style type="text/css">
	.st0{fill:#293B49;}
</style>
<path class="st0" d="M9.4,9.7C9.4,9.7,9.4,9.7,9.4,9.7C8.1,9.7,6.9,9.2,6,8.3C5.1,7.3,4.6,6.1,4.6,4.8C4.6,2.2,6.7,0,9.4,0
	s4.8,2.2,4.8,4.8S12.1,9.7,9.4,9.7z M9.4,2.2c-1.5,0-2.7,1.2-2.7,2.7c0,1.5,1.2,2.7,2.7,2.7l0,1.1l0-1.1c1.5,0,2.7-1.2,2.7-2.7
	S10.9,2.2,9.4,2.2z M12.9,20.5l-0.5-0.3c-0.3-0.2-0.6-0.4-0.8-0.8c-0.2-0.3-0.3-0.5-0.3-0.8H2.4l0.1-1.4c0-0.8,0.5-1.5,1.1-2
	c2.7-1.9,6.2-2.3,9.2-1.1c0.3-0.6,0.8-1,1.4-1.2c0.3-0.1,0.7-0.1,1.1,0l0.2,0c-4.1-2.4-9.2-2.3-13.1,0.5c-1.2,0.8-2,2.2-2.1,3.6
	l-0.3,2.6c0,0.3,0.1,0.6,0.3,0.8c0.2,0.2,0.5,0.4,0.8,0.4h11.6L12.9,20.5z M23.4,17.4l-0.6-0.4c-0.4-0.2-0.6-0.7-0.5-1.1l0.2-0.7
	c0-0.2,0-0.3,0-0.5c-0.1-0.5-0.7-0.9-1.2-0.7l-0.7,0.2c-0.1,0-0.2,0-0.2,0c-0.4,0-0.7-0.2-0.9-0.5l-0.4-0.6
	c-0.2-0.3-0.5-0.5-0.9-0.5c-0.4,0-0.7,0.2-0.9,0.5l-0.4,0.6c-0.2,0.3-0.5,0.5-0.9,0.5c-0.1,0-0.2,0-0.2,0L15.1,14
	c-0.2,0-0.3,0-0.5,0c0,0,0,0,0,0c-0.5,0.1-0.9,0.7-0.7,1.2l0.2,0.7c0.1,0.4-0.1,0.9-0.5,1.1L13,17.4c-0.1,0.1-0.3,0.2-0.4,0.4
	c-0.3,0.5-0.1,1.1,0.4,1.4l0.6,0.4c0.4,0.2,0.6,0.7,0.5,1.1l-0.2,0.7c0,0.2,0,0.3,0,0.5c0.1,0.5,0.7,0.9,1.2,0.7l0.7-0.2
	c0.1,0,0.2,0,0.2,0c0.4,0,0.7,0.2,0.9,0.5l0.4,0.6c0.1,0.1,0.2,0.3,0.4,0.4c0.5,0.3,1.1,0.1,1.4-0.4l0.4-0.6
	c0.2-0.3,0.5-0.5,0.9-0.5c0.1,0,0.2,0,0.2,0l0.7,0.2c0.1,0,0.2,0,0.2,0c0.1,0,0.2,0,0.2,0c0,0,0,0,0,0c0.5-0.1,0.9-0.7,0.7-1.2
	l-0.2-0.7c-0.1-0.4,0.1-0.9,0.5-1.1l0.6-0.4c0.1-0.1,0.3-0.2,0.4-0.4C24,18.4,23.9,17.7,23.4,17.4z M18.2,20.6c-1.2,0-2.2-1-2.2-2.2
	c0-1.2,1-2.2,2.2-2.2c1.2,0,2.2,1,2.2,2.2C20.5,19.6,19.5,20.6,18.2,20.6z"/>
</svg>
