<?xml version="1.0" encoding="utf-8"?>
<!-- Generator: Adobe Illustrator 25.3.1, SVG Export Plug-In . SVG Version: 6.00 Build 0)  -->
<svg version="1.1" id="Layer_1" xmlns="http://www.w3.org/2000/svg" xmlns:xlink="http://www.w3.org/1999/xlink" x="0px" y="0px"
	 viewBox="0 0 24 24" style="enable-background:new 0 0 24 24;" xml:space="preserve">
<style type="text/css">
	.st0{fill:#208DEC;}
</style>
<g id="Home">
	<path class="st0" d="M19.5,24H16c-1.1,0-2-0.9-2-2v-5.4H10V22c0,1.1-0.9,2-2,2H4.5C2.6,24,1,22.4,1,20.5V9.9c0,0,0,0,0,0
		c0-1.3,0.6-2.5,1.6-3.2l8.7-6.4c0.4-0.3,0.9-0.3,1.2,0l8.7,6.4c1,0.8,1.6,2,1.6,3.2v10.6C23,22.4,21.4,24,19.5,24z M9.5,14.4h5
		c0.9,0,1.5,0.7,1.5,1.5v6l3.4,0c0.8,0,1.4-0.6,1.4-1.4V9.9c0-0.6-0.3-1.2-0.8-1.6l-8.1-6l-8.1,6c-0.5,0.4-0.8,1-0.8,1.6v10.6
		c0,0.8,0.7,1.4,1.4,1.4H8L8,16C8,15.1,8.7,14.4,9.5,14.4z"/>
</g>
</svg>
