<?xml version="1.0" encoding="utf-8"?>
<!-- Generator: Adobe Illustrator 25.3.1, SVG Export Plug-In . SVG Version: 6.00 Build 0)  -->
<svg version="1.1" id="Layer_1" xmlns="http://www.w3.org/2000/svg" xmlns:xlink="http://www.w3.org/1999/xlink" x="0px" y="0px"
	 viewBox="0 0 24 24" style="enable-background:new 0 0 24 24;" xml:space="preserve">
<style type="text/css">
	.st0{fill:#293B49;}
</style>
<path id="Group_37041" transform="translate(-80.758 -280.158)" class="st0" d="M101.8,301.2h-18c-1.7,0-3-1.3-3-3v-3.9l0.7-0.2
	c1-0.4,1.6-1.5,1.2-2.6c-0.2-0.6-0.6-1-1.2-1.2l-0.7-0.2v-3.9c0-1.7,1.3-3,3-3h18c1.7,0,3,1.3,3,3v3.9l-0.7,0.2
	c-1,0.4-1.6,1.5-1.2,2.6c0.2,0.6,0.6,1,1.2,1.2l0.7,0.2v3.9C104.8,299.8,103.4,301.2,101.8,301.2z M82.8,295.6v2.5c0,0.6,0.4,1,1,1
	h18c0.6,0,1-0.4,1-1v-2.5c-0.8-0.5-1.5-1.2-1.8-2.1c-0.7-1.8,0.1-3.9,1.8-4.8v-2.5c0-0.6-0.4-1-1-1h-18c-0.6,0-1,0.4-1,1v2.5
	c0.8,0.5,1.5,1.2,1.8,2.1C85.2,292.7,84.4,294.7,82.8,295.6z M93.4,290.2c0.6,0.2,1.1,0.6,1.3,1.2h2.5c-0.3-1.9-1.8-3.4-3.8-3.7
	L93.4,290.2z M90.9,291.4c0.2-0.6,0.7-1,1.3-1.2v-2.5c-1.9,0.2-3.5,1.7-3.8,3.7H90.9z M94.7,292.6c-0.2,0.7-0.7,1.3-1.4,1.5v2.5
	c2-0.3,3.6-1.9,3.8-3.9H94.7z M92.2,294.1c-0.7-0.2-1.2-0.8-1.4-1.5h-2.4c0.2,2,1.8,3.7,3.8,3.9L92.2,294.1z"/>
</svg>
