<svg id="logo_-_MGI_solution" data-name="logo - MGI solution" xmlns="http://www.w3.org/2000/svg" width="170.765" height="32.065" viewBox="0 0 170.765 32.065">
  <path id="Path_2" data-name="Path 2" d="M245.03,342.758l-82.166-.049H82.91a4.323,4.323,0,0,0-4.323,4.322V370.4a4.323,4.323,0,0,0,4.323,4.323h79.955l82.166.05a4.322,4.322,0,0,0,4.322-4.323V347.081A4.322,4.322,0,0,0,245.03,342.758Zm3.814,27.693a3.818,3.818,0,0,1-3.814,3.814l-81.052-.049v-31l81.052.05a3.818,3.818,0,0,1,3.814,3.814Z" transform="translate(-78.587 -342.709)" fill="#208dec"/>
  <path id="Path_3" data-name="Path 3" d="M100.257,356.873l-1.272-.424c-1.06-.353-1.449-.883-1.449-1.767,0-.707.53-1.237,1.484-1.237h6.325a1.868,1.868,0,0,1,2.085,1.448l4.134,13.923c.6,2.014.919,3.781.919,3.781h.071a38.293,38.293,0,0,1,.918-3.817l4.135-13.887a1.906,1.906,0,0,1,2.12-1.448h6.4c.954,0,1.484.53,1.484,1.237,0,.884-.353,1.378-1.449,1.767l-1.272.424,1.908,16.89.99.424c.989.424,1.307.777,1.307,1.554a1.525,1.525,0,0,1-1.731,1.484H121.1a1.525,1.525,0,0,1-1.731-1.484c0-.742.353-1.06,1.413-1.554l.919-.424-.989-10.742c-.212-2.261-.354-4.947-.354-4.947h-.071l-4.912,16.431c-.671,2.226-1.484,2.9-3.286,2.9-1.767,0-2.58-.671-3.251-2.9l-4.912-16.467h-.071s-.141,2.685-.353,4.982l-.99,10.742.919.424c1.06.494,1.414.812,1.414,1.554a1.525,1.525,0,0,1-1.732,1.484H97.783a1.525,1.525,0,0,1-1.731-1.484c0-.777.318-1.13,1.307-1.554l.989-.424Zm46.357.318a6.876,6.876,0,0,0-3.145-.495c-4.487,0-7.385,2.9-7.385,8.587,0,5.76,3.109,8.869,7.986,8.869a7.684,7.684,0,0,0,2.156-.212v-5.548l-2.65-.707c-1.025-.282-1.484-.742-1.484-1.625,0-.707.53-1.272,1.52-1.272h5.866a1.472,1.472,0,0,1,1.7,1.7v6.749a2.864,2.864,0,0,1-1.2,2.686c-.883.636-2.791,1.7-7.315,1.7-7.279,0-11.767-4.488-11.767-11.767,0-7.6,5.124-12.721,13.428-12.721,3.215,0,5.053.6,5.795,1.342.495.495.6,1.025.6,2.827v.495c0,1.025,0,1.555-.035,2.4a1.283,1.283,0,0,1-1.414,1.413c-.812,0-1.342-.424-1.66-1.378Zm10.633-.283-1.555-.495c-1.06-.353-1.449-.812-1.449-1.7,0-.707.53-1.272,1.52-1.272h7.915c.989,0,1.519.565,1.519,1.272,0,.883-.388,1.343-1.448,1.7l-1.555.495v16.855l1.661.53c1.025.318,1.342.671,1.342,1.448a1.525,1.525,0,0,1-1.731,1.484h-7.491a1.525,1.525,0,0,1-1.732-1.484c0-.777.318-1.13,1.343-1.448l1.661-.53Z" transform="translate(-88.737 -349.36)" fill="#fff"/>
  <g id="Group_2" data-name="Group 2" transform="translate(89.118 8.88)">
    <path id="Path_4" data-name="Path 4" d="M331.141,369.581c-3.108,0-4.76,1.651-4.76,3.653,0,3.594,5.44,3.147,5.44,6.256,0,1.4-1.029,2.429-3.089,2.429a3.841,3.841,0,0,1-2.274-.486l-.116-1.846c-.019-.35-.155-.485-.427-.485-.252,0-.408.116-.486.485-.1.427-.155.719-.252,1.3-.155.99-.155,1.185.02,1.418.253.311,1.224.7,3.109.7,3.225,0,4.973-1.749,4.973-3.925,0-3.691-5.44-3.244-5.44-6.256,0-1.166.991-2.156,2.876-2.156a3.825,3.825,0,0,1,2.118.427l.116,1.749c.02.35.155.505.428.505.233,0,.408-.116.486-.486.1-.427.136-.641.233-1.224.155-.991.155-1.185-.019-1.418C333.822,369.911,332.832,369.581,331.141,369.581Z" transform="translate(-325.063 -368.745)" fill="#4e5966"/>
    <path id="Path_5" data-name="Path 5" d="M358.676,379.414c-2.954,0-5.46,2.565-5.46,6.2a3.4,3.4,0,0,0,3.672,3.672c2.953,0,5.459-2.565,5.459-6.2A3.4,3.4,0,0,0,358.676,379.414Zm-1.535,8.8c-1.438,0-2.448-1.011-2.448-2.856,0-2.37,1.166-4.876,3.73-4.876,1.438,0,2.448,1.011,2.448,2.856C360.871,385.709,359.705,388.215,357.141,388.215Z" transform="translate(-343.037 -375.023)" fill="#4e5966"/>
    <path id="Path_6" data-name="Path 6" d="M386.35,367.27a5.475,5.475,0,0,0-1.38.175c-.427.116-.563.291-.563.525s.136.311.369.35l1.107.175-1.924,11.152a3.3,3.3,0,0,0-.058.583c0,.894.524,1.223,1.321,1.223.952,0,1.69-.485,1.69-.952a.3.3,0,0,0-.33-.33c-.214,0-.427.174-.758.174s-.583-.155-.466-.835l1.923-11.132a2.372,2.372,0,0,0,.039-.369C387.321,367.523,387.03,367.27,386.35,367.27Z" transform="translate(-362.628 -367.27)" fill="#4e5966"/>
    <path id="Path_7" data-name="Path 7" d="M407.051,388.1c-.214,0-.427.174-.757.174s-.583-.155-.466-.835l1.224-7.091c.078-.428-.1-.661-.544-.661a.776.776,0,0,0-.836.661l-1.088,6.373a4.088,4.088,0,0,1-2.914,1.652c-1.03,0-1.632-.6-1.632-2.041a48.469,48.469,0,0,1,.894-5.653c.117-.719-.233-.991-.952-.991a5.48,5.48,0,0,0-1.379.175c-.427.117-.564.291-.564.525s.136.311.369.35l1.107.175a34.2,34.2,0,0,0-.952,5.848,2.461,2.461,0,0,0,2.623,2.7,3.95,3.95,0,0,0,3.283-1.67l.039.019c-.155,1.01.33,1.573,1.263,1.573.894,0,1.613-.485,1.613-.952A.3.3,0,0,0,407.051,388.1Z" transform="translate(-371.651 -375.195)" fill="#4e5966"/>
    <path id="Path_8" data-name="Path 8" d="M434.76,375.335h-2.04l.35-2.021c.077-.408-.059-.563-.35-.563-.369,0-.641.253-.893,1.068l-.486,1.516h-.971a.6.6,0,0,0-.68.6c0,.272.136.408.505.408h.972l-1.069,6.217c-.252,1.418.175,2.389,1.768,2.389,1.243,0,2.04-.563,2.04-1.009a.287.287,0,0,0-.311-.312,7.816,7.816,0,0,1-1.185.233c-.855,0-1.088-.349-.894-1.515l1.03-6h2.04a.6.6,0,0,0,.68-.6C435.265,375.471,435.129,375.335,434.76,375.335Z" transform="translate(-391.86 -370.769)" fill="#4e5966"/>
    <path id="Path_9" data-name="Path 9" d="M450.053,388.1c-.214,0-.427.174-.758.174s-.583-.155-.466-.835L450,380.674c.117-.719-.233-.991-.952-.991a5.49,5.49,0,0,0-1.38.175c-.427.117-.563.291-.563.525s.136.311.369.35l1.108.175-1.147,6.664c-.233,1.34.311,1.806,1.263,1.806s1.69-.485,1.69-.952A.3.3,0,0,0,450.053,388.1Z" transform="translate(-402.975 -375.195)" fill="#4e5966"/>
    <path id="Path_10" data-name="Path 10" d="M453.063,368.614a1.1,1.1,0,0,0-1.127,1.127.974.974,0,0,0,1.03,1.01,1.088,1.088,0,0,0,1.108-1.127A.959.959,0,0,0,453.063,368.614Z" transform="translate(-406.063 -368.128)" fill="#4e5966"/>
    <path id="Path_11" data-name="Path 11" d="M466.694,379.414c-2.953,0-5.46,2.565-5.46,6.2a3.4,3.4,0,0,0,3.672,3.672c2.953,0,5.459-2.565,5.459-6.2A3.4,3.4,0,0,0,466.694,379.414Zm-1.535,8.8c-1.438,0-2.448-1.011-2.448-2.856,0-2.37,1.166-4.876,3.73-4.876,1.438,0,2.448,1.011,2.448,2.856C468.889,385.709,467.723,388.215,465.159,388.215Z" transform="translate(-411.999 -375.023)" fill="#4e5966"/>
    <path id="Path_12" data-name="Path 12" d="M500.9,387.924c-.214,0-.427.174-.758.174a.457.457,0,0,1-.505-.525c0-.971.854-3.9.854-5.459a2.461,2.461,0,0,0-2.623-2.7,3.95,3.95,0,0,0-3.283,1.671l-.039-.02a3.933,3.933,0,0,0,.155-.855c0-.447-.214-.7-.894-.7a5.486,5.486,0,0,0-1.379.175c-.427.117-.564.291-.564.525s.136.311.369.35l1.108.175L492,388.526c-.078.427.1.661.544.661a.776.776,0,0,0,.835-.661l1.088-6.372a4.089,4.089,0,0,1,2.914-1.651c1.03,0,1.632.6,1.632,2.04,0,1.36-.777,4.313-.777,5.421,0,.758.369,1.243,1.321,1.243.932,0,1.67-.485,1.67-.952A.3.3,0,0,0,500.9,387.924Z" transform="translate(-431.555 -375.023)" fill="#4e5966"/>
    <path id="Path_13" data-name="Path 13" d="M525.617,380.424c1.4,0,1.535.991,2.04.991a.729.729,0,0,0,.757-.777c0-.6-.874-1.224-2.351-1.224-2.215,0-3.458,1.263-3.458,2.759,0,2.584,4,2.429,4,4.488,0,.953-.661,1.613-1.962,1.613-1.554,0-1.69-1.03-2.2-1.03a.73.73,0,0,0-.758.778c0,.641.855,1.263,2.448,1.263,2.467,0,3.827-1.36,3.827-2.973,0-2.681-4-2.526-4-4.488C523.966,380.988,524.53,380.424,525.617,380.424Z" transform="translate(-450.598 -375.023)" fill="#4e5966"/>
  </g>
</svg>
