<svg id="icon_-_facebook" data-name="icon - facebook" xmlns="http://www.w3.org/2000/svg" width="24" height="24" viewBox="0 0 24 24">
  <rect id="Rectangle_18382" data-name="Rectangle 18382" width="24" height="24" rx="5" fill="#337ab8"/>
  <path id="Path_11413" data-name="Path 11413" d="M-122.378,122.37c.591-.022,1.183,0,1.776,0h.245V119.2c-.316-.031-.647-.077-.977-.093-.607-.028-1.215-.06-1.823-.044a4.39,4.39,0,0,0-2.573.815,3.976,3.976,0,0,0-1.546,2.64,9.448,9.448,0,0,0-.107,1.355c-.017.711,0,1.42,0,2.13v.267h-2.947V129.8h2.93v8.877h3.578v-8.863h2.92c.15-1.175.3-2.337.45-3.548-.235,0-.446,0-.656,0-.83,0-2.737,0-2.737,0s.009-1.751.029-2.51C-123.791,122.717-123.19,122.4-122.378,122.37Z" transform="translate(139.346 -114.898)" fill="#fff" fill-rule="evenodd"/>
</svg>
