<svg id="icon_-_twitter" data-name="icon - twitter" xmlns="http://www.w3.org/2000/svg" width="24" height="24" viewBox="0 0 24 24">
  <rect id="Rectangle_18384" data-name="Rectangle 18384" width="24" height="24" rx="5" fill="#208dec"/>
  <g id="icon_-_twitter-2" data-name="icon - twitter" transform="translate(59.803 -112.949)">
    <path id="path3611" d="M-50.74,132.027a9.33,9.33,0,0,0,9.394-9.266c0-.043,0-.086,0-.128,0-.143,0-.285-.009-.427a6.741,6.741,0,0,0,1.647-1.71,6.563,6.563,0,0,1-1.9.52,3.312,3.312,0,0,0,1.452-1.826,6.624,6.624,0,0,1-2.1.8,3.3,3.3,0,0,0-4.671-.146A3.305,3.305,0,0,0-47.875,123a9.37,9.37,0,0,1-6.805-3.45,3.305,3.305,0,0,0,1.019,4.409,3.287,3.287,0,0,1-1.5-.413v.042a3.3,3.3,0,0,0,2.649,3.237,3.329,3.329,0,0,1-.871.116,3.288,3.288,0,0,1-.62-.059,3.3,3.3,0,0,0,3.085,2.294,6.628,6.628,0,0,1-4.1,1.413,6.849,6.849,0,0,1-.787-.046,9.345,9.345,0,0,0,5.062,1.484" fill="#fff"/>
  </g>
</svg>
