<svg id="icon_-_instagram" data-name="icon - instagram" xmlns="http://www.w3.org/2000/svg" xmlns:xlink="http://www.w3.org/1999/xlink" width="24" height="24" viewBox="0 0 24 24">
  <defs>
    <linearGradient id="linear-gradient" x1="0.918" y1="0.031" x2="0.09" y2="1" gradientUnits="objectBoundingBox">
      <stop offset="0" stop-color="#921ca8"/>
      <stop offset="1" stop-color="#d96500"/>
    </linearGradient>
  </defs>
  <rect id="Rectangle_18383" data-name="Rectangle 18383" width="24" height="24" rx="5" fill="url(#linear-gradient)"/>
  <path id="Path_11414" data-name="Path 11414" d="M-82.419,118.839h-8.554a3.55,3.55,0,0,0-3.544,3.555v8.572a3.551,3.551,0,0,0,3.544,3.551h8.554a3.551,3.551,0,0,0,3.543-3.551v-8.572A3.55,3.55,0,0,0-82.419,118.839Zm-4.257,12.738a4.9,4.9,0,0,1-4.908-4.889v-.009a4.907,4.907,0,0,1,4.889-4.9,4.9,4.9,0,0,1,4.907,4.889A4.9,4.9,0,0,1-86.676,131.577Zm6.335-10.049a1.223,1.223,0,0,1-1.222,1.222,1.223,1.223,0,0,1-1.223-1.222,1.223,1.223,0,0,1,1.223-1.223,1.157,1.157,0,0,1,1.222,1.087C-80.339,121.437-80.339,121.482-80.341,121.528Zm-3.422,5.147v.006a2.939,2.939,0,0,1-2.944,2.933,2.938,2.938,0,0,1-2.933-2.944,2.939,2.939,0,0,1,2.944-2.934v0A2.977,2.977,0,0,1-83.763,126.675Z" transform="translate(98.696 -114.459)" fill="#fff"/>
</svg>
